<svg xmlns="http://www.w3.org/2000/svg" version="1.1" xmlns:xlink="http://www.w3.org/1999/xlink" xmlns:svgjs="http://svgjs.dev/svgjs" width="2000" height="1500" viewBox="0 0 2000 1500"><rect width="2000" height="1500" fill="#ffffff"></rect><g transform="matrix(0.75,0,0,0.75,249.090909090909,482.10468939098143)"><svg viewBox="0 0 396 141" data-background-color="#ffffff" preserveAspectRatio="xMidYMid meet" height="712" width="2000" xmlns="http://www.w3.org/2000/svg" xmlns:xlink="http://www.w3.org/1999/xlink"><g id="tight-bounds" transform="matrix(1,0,0,1,0.2400000000000091,0.23640223945994876)"><svg viewBox="0 0 395.52 140.52719552108013" height="140.52719552108013" width="395.52"><g><svg viewBox="0 0 395.52 140.52719552108013" height="140.52719552108013" width="395.52"><g transform="matrix(1,0,0,1,0,86.8514445035084)"><svg viewBox="0 0 395.52 53.675751017571734" height="53.675751017571734" width="395.52"><g id="textblocktransform"><svg viewBox="0 0 395.52 53.675751017571734" height="53.675751017571734" width="395.52" id="textblock"><g><svg viewBox="0 0 395.52 53.675751017571734" height="53.675751017571734" width="395.52"><g transform="matrix(1,0,0,1,0,0)"><svg width="395.52" viewBox="2.08 -31.58 251.79999999999998 34.18" height="53.675751017571734" data-palette-color="#4ca80e"><path d="M12.63 1.55L12.63 1.55Q9.45 1.55 7.28 0.4 5.1-0.75 3.91-3.08 2.73-5.4 2.35-8.95L2.35-8.95Q2.25-9.8 2.2-10.71 2.15-11.63 2.11-12.61 2.08-13.6 2.08-14.65 2.08-15.7 2.08-16.8L2.08-16.8Q2.08-21.08 2.9-23.86 3.73-26.65 5.49-28.23 7.25-29.8 10.01-30.45 12.78-31.1 16.6-31.1L16.6-31.1Q18.48-31.1 20.19-30.94 21.9-30.78 23.23-30.45 24.55-30.13 25.31-29.64 26.08-29.15 26.08-28.48L26.08-28.48Q26.08-27.78 25.66-27.36 25.25-26.95 24.6-26.83L24.6-26.83Q23.83-26.73 22.55-26.79 21.28-26.85 19.75-26.93 18.23-27 16.65-27L16.65-27Q14.4-27 12.88-26.66 11.35-26.33 10.43-25.55 9.5-24.78 9.1-23.45 8.7-22.13 8.7-20.18L8.7-20.18Q8.7-19.18 8.96-18.66 9.22-18.15 10.2-17.99 11.18-17.82 13.33-17.82L13.33-17.82Q13.85-17.82 14.63-17.84 15.4-17.85 16.24-17.88 17.07-17.9 17.81-17.9 18.55-17.9 18.98-17.9L18.98-17.9Q20.85-17.9 21.58-17.43 22.3-16.95 22.3-16.03L22.3-16.03Q22.3-14.7 21.44-14.21 20.58-13.73 19.15-13.73L19.15-13.73Q18.53-13.73 17.78-13.73 17.03-13.73 16.21-13.71 15.4-13.7 14.65-13.7 13.9-13.7 13.3-13.7L13.3-13.7Q11.08-13.7 10-13.56 8.93-13.43 8.61-12.96 8.3-12.5 8.3-11.5L8.3-11.5Q8.3-9.85 8.45-8.54 8.6-7.23 8.97-6.26 9.35-5.3 10.04-4.67 10.73-4.05 11.8-3.74 12.88-3.43 14.4-3.43L14.4-3.43Q16.3-3.43 18.13-3.55 19.95-3.68 21.43-3.79 22.9-3.9 23.73-3.9L23.73-3.9Q24.85-3.9 25.38-3.44 25.9-2.98 25.9-2.08L25.9-2.08Q25.9-1.07 24.66-0.38 23.43 0.33 21.44 0.75 19.45 1.18 17.13 1.36 14.8 1.55 12.63 1.55ZM60.4 1L60.4 1Q59.37 1 58.64 0.49 57.9-0.03 57.32-1.05L57.32-1.05Q57.1-1.73 56.82-2.64 56.55-3.55 56.28-4.5 56.02-5.45 55.75-6.31 55.47-7.18 55.2-7.75L55.2-7.75Q54.85-8.55 54.34-8.93 53.82-9.3 52.82-9.45L52.82-9.45Q52.32-9.5 51.31-9.59 50.3-9.68 49.1-9.74 47.9-9.8 46.85-9.8L46.85-9.8Q45.25-9.8 43.6-9.73 41.95-9.65 40.75-9.53L40.75-9.53Q39.72-9.43 39.21-9.11 38.7-8.8 38.37-8.03L38.37-8.03Q38.05-7.3 37.7-6.28 37.35-5.25 37-4.13 36.65-3 36.3-1.93L36.3-1.93Q35.77-0.73 35.03-0.11 34.3 0.5 33 0.5L33 0.5Q32 0.5 31.32 0.18 30.65-0.15 30.32-0.9 30-1.65 30-2.88L30-2.88Q30-4.03 30.32-5.64 30.65-7.25 31.21-9.13 31.77-11 32.46-12.93 33.15-14.85 33.86-16.64 34.57-18.43 35.22-19.86 35.87-21.3 36.35-22.15L36.35-22.15Q37.2-23.73 38.28-25.18 39.37-26.63 40.71-27.76 42.05-28.9 43.65-29.56 45.25-30.23 47.17-30.23L47.17-30.23Q50.27-30.23 52.76-28.35 55.25-26.48 57.17-23.38L57.17-23.38Q57.9-22.33 58.64-20.66 59.37-19 60.1-16.99 60.82-14.98 61.45-12.83 62.07-10.68 62.56-8.6 63.05-6.53 63.31-4.78 63.57-3.03 63.57-1.83L63.57-1.83Q63.57-0.28 62.72 0.36 61.87 1 60.4 1ZM53.15-13.78L53.15-13.78Q53.7-13.88 53.87-14.2 54.05-14.53 54.05-15.23L54.05-15.23Q54.05-16 53.78-17.14 53.52-18.28 53.07-19.54 52.62-20.8 52.02-21.9L52.02-21.9Q51.17-23.53 50.02-24.61 48.87-25.7 47.55-25.7L47.55-25.7Q46.1-25.7 44.78-24.56 43.47-23.43 42.47-21.68L42.47-21.68Q42.05-20.98 41.6-20.08 41.15-19.18 40.77-18.23 40.4-17.28 40.16-16.44 39.92-15.6 39.92-15.03L39.92-15.03Q39.92-14.28 40.52-13.99 41.12-13.7 42.45-13.7L42.45-13.7Q45.25-13.7 47.3-13.7 49.35-13.7 50.78-13.7 52.22-13.7 53.15-13.78ZM77.55 1L77.55 1Q74.75 1 72.22 0.7 69.7 0.4 68.17-0.2L68.17-0.2Q66.82-0.68 66.16-1.4 65.5-2.13 65.5-3.05L65.5-3.05Q65.5-4.28 66.27-5.65 67.05-7.03 68.57-8.53L68.57-8.53Q69.57-9.53 71-10.94 72.42-12.35 74.03-13.95 75.65-15.55 77.23-17.15 78.82-18.75 80.15-20.15 81.47-21.55 82.32-22.53L82.32-22.53Q83.12-23.38 83.47-23.98 83.82-24.58 83.82-24.95L83.82-24.95Q83.82-25.3 83.28-25.49 82.75-25.68 81.67-25.68L81.67-25.68Q81.2-25.68 80.02-25.63 78.85-25.58 77.37-25.5 75.9-25.43 74.51-25.38 73.12-25.33 72.2-25.33L72.2-25.33Q70.17-25.33 68.93-25.49 67.7-25.65 67.15-26.08 66.6-26.5 66.6-27.25L66.6-27.25Q66.6-28.23 67.28-28.85 67.97-29.48 69.33-29.85 70.7-30.23 72.71-30.38 74.72-30.53 77.4-30.53L77.4-30.53Q79.55-30.53 81.75-30.44 83.95-30.35 85.71-30.16 87.47-29.98 88.32-29.7L88.32-29.7Q89.6-29.28 90.26-28.54 90.92-27.8 90.92-26.75L90.92-26.75Q90.92-25.9 90.56-25.09 90.2-24.28 89.61-23.48 89.02-22.68 88.32-21.88L88.32-21.88Q87.82-21.25 86.8-20.08 85.77-18.9 84.41-17.39 83.05-15.88 81.56-14.24 80.07-12.6 78.61-11.04 77.15-9.47 75.95-8.18L75.95-8.18Q74.87-7.1 74.35-6.38 73.82-5.65 73.82-5.15L73.82-5.15Q73.82-4.88 74.37-4.66 74.92-4.45 76.3-4.34 77.67-4.23 80.1-4.23L80.1-4.23Q81.67-4.23 83.12-4.36 84.57-4.5 85.73-4.61 86.9-4.73 87.6-4.73L87.6-4.73Q88.35-4.73 88.91-4.55 89.47-4.38 89.78-3.95 90.1-3.53 90.1-2.78L90.1-2.78Q90.1-1.98 89.3-1.38 88.5-0.78 87.13-0.31 85.77 0.15 84.11 0.44 82.45 0.73 80.75 0.86 79.05 1 77.55 1ZM107.37 0.5L107.37 0.5Q105.97 0.5 105.37-0.19 104.77-0.88 104.52-2.33L104.52-2.33Q104.44-2.85 104.41-3.53 104.37-4.2 104.33-4.95 104.29-5.7 104.26-6.46 104.22-7.23 104.17-7.93L104.17-7.93Q104.07-9.45 103.82-10.58 103.57-11.7 102.52-12.4L102.52-12.4Q101.34-13.18 100.23-13.93 99.12-14.68 98.19-15.53L98.19-15.53Q97.14-16.5 96.29-17.82 95.44-19.15 94.86-20.66 94.27-22.18 93.94-23.73 93.62-25.28 93.62-26.63L93.62-26.63Q93.62-27.73 94.06-28.5 94.49-29.28 95.26-29.69 96.02-30.1 96.99-30.1L96.99-30.1Q97.82-30.1 98.47-29.39 99.12-28.68 99.67-27.03L99.67-27.03Q99.97-25.85 100.42-24.61 100.87-23.38 101.44-22.23L101.44-22.23Q102.17-20.68 103.09-19.39 104.02-18.1 105.16-17.35 106.29-16.6 107.62-16.6L107.62-16.6Q108.82-16.6 109.98-17.32 111.14-18.05 112.22-19.2L112.22-19.2Q113.59-20.7 114.69-22.6 115.79-24.5 116.42-26.13L116.42-26.13Q117.22-27.9 117.87-28.74 118.52-29.58 119.32-29.58L119.32-29.58Q120.24-29.58 120.96-29.1 121.67-28.63 122.07-27.85 122.47-27.08 122.47-26.1L122.47-26.1Q122.47-24.9 122.09-23.5 121.72-22.1 121.04-20.65 120.37-19.2 119.46-17.86 118.54-16.53 117.49-15.48L117.49-15.48Q116.27-14.25 115.03-13.38 113.79-12.5 112.74-11.83L112.74-11.83Q112.04-11.38 111.66-10.98 111.27-10.58 111.07-10.1 110.87-9.63 110.69-8.9L110.69-8.9Q110.62-8.38 110.54-7.6 110.47-6.83 110.39-5.94 110.32-5.05 110.24-4.14 110.17-3.23 110.07-2.43L110.07-2.43Q109.89-1.05 109.21-0.28 108.52 0.5 107.37 0.5ZM135.72 1.23L135.72 1.23Q133.49 1.23 131.43 0.86 129.37 0.5 127.74-0.11 126.12-0.73 125.17-1.56 124.22-2.4 124.22-3.38L124.22-3.38Q124.22-4.2 124.59-4.67 124.97-5.15 125.62-5.35 126.27-5.55 126.99-5.55L126.99-5.55Q127.47-5.55 128.43-5.16 129.39-4.78 130.81-4.38 132.24-3.98 134.12-3.98L134.12-3.98Q136.09-3.98 137.58-4.13 139.06-4.28 140.06-4.71 141.06-5.15 141.55-5.91 142.04-6.68 142.04-7.88L142.04-7.88Q142.04-9 141.47-9.88 140.89-10.75 139.87-11.48 138.84-12.2 137.45-12.84 136.06-13.48 134.44-14.13L134.44-14.13Q132.47-14.9 130.75-15.78 129.04-16.65 127.75-17.7 126.47-18.75 125.75-20.08 125.04-21.4 125.04-23.1L125.04-23.1Q125.04-25 125.92-26.39 126.79-27.78 128.28-28.73 129.77-29.68 131.6-30.23 133.44-30.78 135.37-31.01 137.29-31.25 138.99-31.25L138.99-31.25Q141.12-31.25 142.95-30.94 144.79-30.63 146.2-30.06 147.62-29.5 148.4-28.78 149.19-28.05 149.19-27.23L149.19-27.23Q149.19-26.5 148.84-26.01 148.49-25.53 147.94-25.3 147.39-25.08 146.72-25.08L146.72-25.08Q146.24-25.08 145.38-25.51 144.52-25.95 143.17-26.39 141.81-26.83 139.81-26.83L139.81-26.83Q138.56-26.83 137.34-26.65 136.12-26.48 135.12-26.04 134.12-25.6 133.52-24.86 132.92-24.13 132.92-22.98L132.92-22.98Q132.92-21.88 133.45-21.04 133.99-20.2 134.95-19.54 135.92-18.88 137.22-18.28 138.52-17.68 140.04-17.07L140.04-17.07Q142.06-16.25 143.89-15.28 145.72-14.3 147.13-13.11 148.54-11.93 149.35-10.45 150.17-8.97 150.17-7.15L150.17-7.15Q150.17-4.83 149.05-3.21 147.94-1.6 145.97-0.63 143.99 0.35 141.37 0.79 138.74 1.23 135.72 1.23ZM179.26 0.55L179.26 0.55Q178.19 0.55 177.68 0.1 177.16-0.35 177.01-1.4L177.01-1.4Q176.96-2.3 176.95-3.29 176.94-4.28 176.94-5.29 176.94-6.3 176.94-7.25 176.94-8.2 176.95-9.03 176.96-9.85 176.94-10.43L176.94-10.43Q176.94-11.73 176.7-12.26 176.46-12.8 175.99-13.03L175.99-13.03Q175.44-13.28 173.93-13.45 172.41-13.63 169.09-13.63L169.09-13.63Q167.21-13.63 166.05-13.6 164.89-13.58 164.2-13.51 163.51-13.45 163.13-13.36 162.74-13.28 162.41-13.13L162.41-13.13Q162.06-12.98 161.74-12.64 161.41-12.3 161.34-11.53L161.34-11.53Q161.26-11.15 161.23-10.63 161.19-10.1 161.14-9.43 161.09-8.75 161.06-7.91 161.04-7.08 161-6.04 160.96-5 160.94-3.73L160.94-3.73Q160.81-2.05 160.46-1.18 160.11-0.3 159.51 0.01 158.91 0.33 157.99 0.33L157.99 0.33Q156.61 0.33 155.93-0.91 155.24-2.15 154.89-4.03L154.89-4.03Q154.76-5 154.65-6.4 154.54-7.8 154.49-9.34 154.44-10.88 154.4-12.35 154.36-13.83 154.36-14.95L154.36-14.95Q154.36-16.68 154.4-18.2 154.44-19.73 154.54-21.09 154.64-22.45 154.75-23.63 154.86-24.8 155.04-25.78L155.04-25.78Q155.34-27.5 155.81-28.65 156.29-29.8 157-30.38 157.71-30.95 158.71-30.95L158.71-30.95Q159.86-30.95 160.43-30.14 160.99-29.33 161.19-27.28L161.19-27.28Q161.24-26.55 161.29-25.81 161.34-25.08 161.39-24.38 161.44-23.68 161.49-23.09 161.54-22.5 161.59-22.05 161.64-21.6 161.66-21.33L161.66-21.33Q161.81-20.43 162.05-19.89 162.29-19.35 162.96-19.2L162.96-19.2Q163.84-19.03 165.54-18.99 167.24-18.95 169.16-18.95L169.16-18.95Q170.74-18.95 172.11-18.91 173.49-18.88 174.51-18.9 175.54-18.93 175.96-19.05L175.96-19.05Q176.41-19.23 176.69-19.69 176.96-20.15 177.06-21.28L177.06-21.28Q177.11-21.8 177.16-22.53 177.21-23.25 177.28-24.18 177.34-25.1 177.41-26.11 177.49-27.13 177.61-28.18L177.61-28.18Q177.84-30.05 178.44-30.81 179.04-31.58 179.94-31.58L179.94-31.58Q181.21-31.58 181.88-30.64 182.54-29.7 182.89-27.5L182.89-27.5Q183.06-26.85 183.18-25.73 183.29-24.6 183.38-23.14 183.46-21.68 183.5-20.01 183.54-18.35 183.54-16.65L183.54-16.65Q183.54-15.25 183.49-13.74 183.44-12.23 183.35-10.71 183.26-9.2 183.14-7.79 183.01-6.38 182.88-5.18 182.74-3.98 182.59-3.08L182.59-3.08Q182.19-1.15 181.35-0.3 180.51 0.55 179.26 0.55ZM203.24 2.6L203.24 2.6Q199.64 2.6 196.65 1.49 193.66 0.38 191.47-1.73 189.28-3.83 188.1-6.78 186.91-9.73 186.91-13.4L186.91-13.4Q186.91-16.85 187.99-19.53 189.06-22.2 190.94-24.15 192.81-26.1 195.2-27.35 197.59-28.6 200.24-29.21 202.89-29.83 205.49-29.83L205.49-29.83Q209.31-29.83 212.54-28.7 215.76-27.58 218.16-25.49 220.56-23.4 221.89-20.49 223.21-17.57 223.21-13.98L223.21-13.98Q223.21-10 221.71-6.91 220.21-3.83 217.49-1.7 214.76 0.43 211.12 1.51 207.49 2.6 203.24 2.6ZM204.41-3.95L204.41-3.95Q208.79-3.95 211.41-5.35 214.04-6.75 215.21-9.08 216.39-11.4 216.39-14.18L216.39-14.18Q216.39-16.73 215.55-18.73 214.71-20.73 213.21-22.1 211.71-23.48 209.74-24.19 207.76-24.9 205.49-24.9L205.49-24.9Q203.26-24.9 201.24-24.23 199.21-23.55 197.64-22.3 196.06-21.05 195.15-19.28 194.24-17.5 194.24-15.3L194.24-15.3Q194.24-12.68 195-10.59 195.76-8.5 197.12-7.01 198.49-5.53 200.35-4.74 202.21-3.95 204.41-3.95ZM232.13 0.53L232.13 0.53Q231.28 0.53 230.57 0.1 229.86-0.33 229.3-1.28 228.73-2.23 228.31-3.78L228.31-3.78Q228.13-4.55 227.96-5.76 227.78-6.98 227.62-8.41 227.46-9.85 227.32-11.39 227.18-12.93 227.08-14.4 226.98-15.88 226.92-17.16 226.86-18.45 226.86-19.35L226.86-19.35Q226.86-23.4 227.92-25.73 228.98-28.05 231.41-29.01 233.83-29.98 237.88-29.98L237.88-29.98Q241.03-29.98 243.92-29.39 246.81-28.8 249.06-27.58 251.31-26.35 252.6-24.43 253.88-22.5 253.88-19.83L253.88-19.83Q253.88-17.78 253-16.24 252.11-14.7 250.5-13.66 248.88-12.63 246.68-12.04 244.48-11.45 241.88-11.25L241.88-11.25Q240.18-11.15 238.57-11.21 236.96-11.28 235.43-11.28L235.43-11.28Q234.76-11.28 234.57-10.76 234.38-10.25 234.38-9.35L234.38-9.35Q234.38-8.85 234.41-8.15 234.43-7.45 234.48-6.65 234.53-5.85 234.57-5.06 234.61-4.28 234.63-3.6 234.66-2.93 234.66-2.48L234.66-2.48Q234.66-0.98 234.05-0.23 233.43 0.53 232.13 0.53ZM235.73-14.83L235.73-14.83Q237.48-14.83 239.23-14.98 240.98-15.13 242.56-15.49 244.13-15.85 245.36-16.46 246.58-17.07 247.28-17.99 247.98-18.9 247.98-20.15L247.98-20.15Q247.98-21.55 247.31-22.54 246.63-23.53 245.56-24.19 244.48-24.85 243.25-25.23 242.01-25.6 240.86-25.75 239.71-25.9 238.93-25.9L238.93-25.9Q237.41-25.9 236.36-25.66 235.31-25.43 234.68-24.91 234.06-24.4 233.78-23.64 233.51-22.88 233.51-21.83L233.51-21.83Q233.51-20.33 233.57-19.18 233.63-18.03 233.78-17.19 233.93-16.35 234.18-15.84 234.43-15.33 234.81-15.08 235.18-14.83 235.73-14.83Z" opacity="1" transform="matrix(1,0,0,1,0,0)" fill="#4ca80e" class="wordmark-text-0" data-fill-palette-color="primary" id="text-0"></path></svg></g></svg></g></svg></g></svg></g><g transform="matrix(1,0,0,1,160.67005604685792,0)"><svg viewBox="0 0 74.17988790628414 74.17988790628414" height="74.17988790628414" width="74.17988790628414"><g><svg xmlns="http://www.w3.org/2000/svg" xmlns:xlink="http://www.w3.org/1999/xlink" version="1.1" x="0" y="0" viewBox="7.261 6.964 75.477 75.477" enable-background="new 0 0 90 90" xml:space="preserve" height="74.17988790628414" width="74.17988790628414" class="icon-icon-0" data-fill-palette-color="accent" id="icon-0"><g fill="#fd0d05" data-fill-palette-color="accent"><polygon points="43.583,37.298 32.386,9.106 29.752,10.152 41.15,38.849 43.583,41.282  " fill="#fd0d05" data-fill-palette-color="accent"></polygon><polygon points="46.418,52.112 57.613,80.299 60.247,79.252 48.85,50.556 46.418,48.125  " fill="#fd0d05" data-fill-palette-color="accent"></polygon><polygon points="37.596,46.119 9.403,57.317 10.45,59.951 39.146,48.554 41.58,46.119  " fill="#fd0d05" data-fill-palette-color="accent"></polygon><polygon points="52.409,43.286 80.598,32.09 79.551,29.455 50.855,40.853 48.422,43.286  " fill="#fd0d05" data-fill-palette-color="accent"></polygon><polygon points="38.762,40.468 10.91,28.452 9.788,31.053 38.139,43.286 41.579,43.286  " fill="#fd0d05" data-fill-palette-color="accent"></polygon><polygon points="51.239,48.938 79.089,60.954 80.212,58.352 51.861,46.12 48.421,46.12  " fill="#fd0d05" data-fill-palette-color="accent"></polygon><polygon points="49.236,38.463 61.252,10.613 58.649,9.49 46.418,37.841 46.418,41.281  " fill="#fd0d05" data-fill-palette-color="accent"></polygon><polygon points="40.765,50.943 28.75,78.793 31.352,79.916 43.583,51.565 43.583,48.125  " fill="#fd0d05" data-fill-palette-color="accent"></polygon><polygon points="48.85,50.556 70.683,72.39 72.687,70.386 51.239,48.938 47.579,47.359  " fill="#fd0d05" data-fill-palette-color="accent"></polygon><polygon points="41.15,38.849 19.316,17.015 17.313,19.019 38.762,40.468 42.42,42.046  " fill="#fd0d05" data-fill-palette-color="accent"></polygon><polygon points="43.583,42.548 42.42,42.046 42.913,43.286 43.583,43.286  " fill="#fd0d05" data-fill-palette-color="accent"></polygon><polygon points="46.418,46.857 47.579,47.359 47.087,46.119 46.418,46.119  " fill="#fd0d05" data-fill-palette-color="accent"></polygon><polygon points="50.855,40.853 72.688,19.02 70.684,17.016 49.236,38.463 47.657,42.123  " fill="#fd0d05" data-fill-palette-color="accent"></polygon><polygon points="39.146,48.554 17.313,70.387 19.317,72.391 40.765,50.943 42.344,47.283  " fill="#fd0d05" data-fill-palette-color="accent"></polygon><polygon points="47.155,43.286 47.657,42.123 46.418,42.615 46.418,43.286  " fill="#fd0d05" data-fill-palette-color="accent"></polygon><polygon points="42.846,46.119 42.344,47.283 43.583,46.791 43.583,46.119  " fill="#fd0d05" data-fill-palette-color="accent"></polygon><polygon points="82.738,43.286 52.409,43.286 48.704,44.757 51.861,46.12 82.738,46.12  " fill="#fd0d05" data-fill-palette-color="accent"></polygon><polygon points="38.139,43.286 7.261,43.286 7.261,46.119 37.596,46.119 41.298,44.649  " fill="#fd0d05" data-fill-palette-color="accent"></polygon><polygon points="42.475,44.182 41.298,44.649 42.522,45.177 42.997,44.703  " fill="#fd0d05" data-fill-palette-color="accent"></polygon><polygon points="47.005,44.704 47.526,45.225 48.704,44.757 47.479,44.229  " fill="#fd0d05" data-fill-palette-color="accent"></polygon><polygon points="42.913,43.286 41.579,43.286 42.475,44.182 43.16,43.909  " fill="#fd0d05" data-fill-palette-color="accent"></polygon><polygon points="47.087,46.119 48.421,46.12 47.526,45.225 46.84,45.498  " fill="#fd0d05" data-fill-palette-color="accent"></polygon><polygon points="43.583,43.741 43.16,43.909 43.339,44.36 43.583,44.116  " fill="#fd0d05" data-fill-palette-color="accent"></polygon><polygon points="46.418,45.666 46.84,45.498 46.661,45.047 46.418,45.29  " fill="#fd0d05" data-fill-palette-color="accent"></polygon><polygon points="42.522,45.177 41.58,46.119 42.846,46.119 43.138,45.443  " fill="#fd0d05" data-fill-palette-color="accent"></polygon><polygon points="47.479,44.229 48.422,43.286 47.155,43.286 46.863,43.963  " fill="#fd0d05" data-fill-palette-color="accent"></polygon><polygon points="43.318,45.025 43.138,45.443 43.583,45.635 43.583,45.29  " fill="#fd0d05" data-fill-palette-color="accent"></polygon><polygon points="46.683,44.382 46.863,43.963 46.418,43.771 46.418,44.117  " fill="#fd0d05" data-fill-palette-color="accent"></polygon><polygon points="46.534,44.727 46.661,45.047 47.005,44.704 46.683,44.382  " fill="#fd0d05" data-fill-palette-color="accent"></polygon><polygon points="43.339,44.36 42.997,44.703 43.318,45.025 43.467,44.681  " fill="#fd0d05" data-fill-palette-color="accent"></polygon><polygon points="46.418,44.996 46.534,44.727 46.418,44.435  " fill="#fd0d05" data-fill-palette-color="accent"></polygon><polygon points="43.467,44.681 43.583,44.976 43.583,44.41  " fill="#fd0d05" data-fill-palette-color="accent"></polygon><polygon points="46.418,37.841 46.418,6.964 43.583,6.964 43.583,37.298 45.054,41.001  " fill="#fd0d05" data-fill-palette-color="accent"></polygon><polygon points="43.583,51.565 43.583,82.441 46.418,82.441 46.418,52.112 44.946,48.407  " fill="#fd0d05" data-fill-palette-color="accent"></polygon><polygon points="45.521,42.178 45.054,41.001 44.526,42.225 45,42.699  " fill="#fd0d05" data-fill-palette-color="accent"></polygon><polygon points="44.479,47.229 44.946,48.407 45.475,47.182 45.001,46.707  " fill="#fd0d05" data-fill-palette-color="accent"></polygon><polygon points="44.526,42.225 43.583,41.282 43.583,42.548 44.261,42.841  " fill="#fd0d05" data-fill-palette-color="accent"></polygon><polygon points="45.475,47.182 46.418,48.125 46.418,46.857 45.741,46.565  " fill="#fd0d05" data-fill-palette-color="accent"></polygon><polygon points="45.323,46.386 45.741,46.565 45.933,46.119 45.589,46.119  " fill="#fd0d05" data-fill-palette-color="accent"></polygon><polygon points="44.679,43.021 44.261,42.841 44.069,43.286 44.414,43.286  " fill="#fd0d05" data-fill-palette-color="accent"></polygon><polygon points="43.583,46.791 43.583,48.125 44.479,47.229 44.207,46.544  " fill="#fd0d05" data-fill-palette-color="accent"></polygon><polygon points="46.418,42.615 46.418,41.281 45.521,42.178 45.794,42.863  " fill="#fd0d05" data-fill-palette-color="accent"></polygon><polygon points="44.038,46.119 44.207,46.544 44.658,46.364 44.413,46.119  " fill="#fd0d05" data-fill-palette-color="accent"></polygon><polygon points="45.962,43.286 45.794,42.863 45.343,43.042 45.587,43.286  " fill="#fd0d05" data-fill-palette-color="accent"></polygon><polygon points="44.658,46.364 45.001,46.707 45.323,46.386 44.979,46.237  " fill="#fd0d05" data-fill-palette-color="accent"></polygon><polygon points="45.343,43.042 45,42.699 44.679,43.021 45.023,43.169  " fill="#fd0d05" data-fill-palette-color="accent"></polygon><polygon points="44.979,46.237 45.274,46.119 44.707,46.119  " fill="#fd0d05" data-fill-palette-color="accent"></polygon><polygon points="45.023,43.169 44.729,43.286 45.293,43.286  " fill="#fd0d05" data-fill-palette-color="accent"></polygon><polygon points="44.069,43.286 43.583,43.286 43.583,43.741 43.932,43.603  " fill="#fd0d05" data-fill-palette-color="accent"></polygon><polygon points="45.933,46.119 46.418,46.119 46.418,45.666 46.069,45.804  " fill="#fd0d05" data-fill-palette-color="accent"></polygon><polygon points="46.069,45.804 46.194,45.514 45.796,45.913  " fill="#fd0d05" data-fill-palette-color="accent"></polygon><polygon points="43.932,43.603 43.807,43.893 44.205,43.494  " fill="#fd0d05" data-fill-palette-color="accent"></polygon><polygon points="43.583,45.635 43.583,46.119 44.038,46.119 43.899,45.771  " fill="#fd0d05" data-fill-palette-color="accent"></polygon><polygon points="46.418,43.771 46.418,43.286 45.962,43.286 46.1,43.634  " fill="#fd0d05" data-fill-palette-color="accent"></polygon><polygon points="43.899,45.771 44.19,45.896 43.791,45.497  " fill="#fd0d05" data-fill-palette-color="accent"></polygon><polygon points="46.1,43.634 45.81,43.509 46.209,43.908  " fill="#fd0d05" data-fill-palette-color="accent"></polygon><polygon points="46.418,45.29 46.418,44.996 46.194,45.514  " fill="#fd0d05" data-fill-palette-color="accent"></polygon><polygon points="43.583,44.116 43.583,44.41 43.807,43.893  " fill="#fd0d05" data-fill-palette-color="accent"></polygon><polygon points="45.587,43.286 45.293,43.286 45.81,43.509  " fill="#fd0d05" data-fill-palette-color="accent"></polygon><polygon points="44.413,46.119 44.707,46.119 44.19,45.896  " fill="#fd0d05" data-fill-palette-color="accent"></polygon><polygon points="45.589,46.119 45.796,45.913 45.274,46.119  " fill="#fd0d05" data-fill-palette-color="accent"></polygon><polygon points="44.414,43.286 44.205,43.494 44.729,43.286  " fill="#fd0d05" data-fill-palette-color="accent"></polygon><polygon points="43.583,45.29 43.791,45.497 43.583,44.976  " fill="#fd0d05" data-fill-palette-color="accent"></polygon><polygon points="46.418,44.117 46.209,43.908 46.418,44.435  " fill="#fd0d05" data-fill-palette-color="accent"></polygon></g></svg></g></svg></g><g></g></svg></g><defs></defs></svg><rect width="395.52" height="140.52719552108013" fill="none" stroke="none" visibility="hidden"></rect></g></svg></g></svg>